<?xml version="1.0" ?><svg style="enable-background:new 0 0 48 48;" version="1.1" viewBox="0 0 48 48" xml:space="preserve" xmlns="http://www.w3.org/2000/svg" xmlns:xlink="http://www.w3.org/1999/xlink"><style type="text/css">
	.st0{display:none;}
	.st1{fill:none;stroke:#303030;stroke-width:0.7;stroke-linecap:round;stroke-linejoin:round;stroke-miterlimit:10;}
	.st2{fill:#303030;}
</style><g class="st0" id="Padding__x26__Artboard"/><g id="Icons"><g><path class="st1" d="M25.15189,22.20911c0-0.49971-0.00845-0.99963,0.0038-1.49904    c0.00559-0.22761-0.06737-0.31311-0.30348-0.31143c-1.22821,0.00878-2.45655,0.00826-3.68477,0.00022    c-0.22517-0.00147-0.3092,0.05978-0.30886,0.3c0.0063,4.52521,0.00619,9.05042,0.00018,13.57563    c-0.00031,0.23505,0.07476,0.30562,0.30474,0.30413c1.28479-0.00836,2.56969-0.00904,3.85446,0.00056    c0.23377,0.00174,0.29935-0.07043,0.29845-0.30314c-0.00836-2.14944-0.01109-4.29896-0.00053-6.44839    c0.00262-0.53079,0.03521-1.06421,0.09809-1.59117c0.06865-0.57532,0.25288-1.11926,0.65713-1.55805    c0.51899-0.56334,1.19322-0.69033,1.92107-0.67669c1.01593,0.01904,1.64899,0.49233,1.93927,1.46481    c0.18708,0.62673,0.20205,1.27111,0.20239,1.91685c0.0012,2.28685,0.0002,4.5737,0.00086,6.86055    c0.00009,0.3195,0.01038,0.33005,0.32451,0.33029c1.25252,0.00097,2.50503,0.00061,3.75755,0.00035    c0.39041-0.00008,0.39247-0.00066,0.39088-0.38553c-0.01137-2.77075-0.01873-5.54153-0.03859-8.31222    c-0.0061-0.84882-0.12002-1.68806-0.35247-2.5063c-0.35585-1.2527-1.02625-2.27441-2.2576-2.80802    c-1.28827-0.55827-2.63743-0.65926-4.00143-0.32467C26.78034,20.52663,25.8498,21.18733,25.15189,22.20911z M18.18314,27.50171    c0-2.26232-0.00401-4.52465,0.00574-6.78692c0.00105-0.24554-0.06449-0.31902-0.3099-0.317    c-1.2765,0.01048-2.55318,0.00979-3.82971,0.00042c-0.23921-0.00176-0.31981,0.06524-0.31943,0.31466    c0.00689,4.51654,0.00685,9.0331,0.00006,13.54964c-0.00037,0.24713,0.07565,0.31849,0.31746,0.31665    c1.27652-0.00969,2.55319-0.00984,3.82971,0.00013c0.24204,0.00189,0.31314-0.06606,0.31202-0.31489    C18.17893,32.0102,18.18314,29.75595,18.18314,27.50171z M13.39222,15.9968c0.00024,1.41067,1.15553,2.59189,2.56828,2.57774    c1.45775-0.01461,2.58886-1.11258,2.58623-2.58059c-0.00268-1.49359-1.15422-2.58155-2.58896-2.57322    C14.42777,13.4296,13.39491,14.65416,13.39222,15.9968z"/></g></g></svg>